<svg width="942" height="930" viewBox="0 0 942 930" fill="none" xmlns="http://www.w3.org/2000/svg">
<path d="M939.836 442.424C938.958 442.424 938.141 441.886 937.812 441.028L847.269 201.414C846.85 200.307 847.398 199.071 848.505 198.632C849.562 198.213 850.829 198.721 851.297 199.828L871.809 249.897C871.819 249.917 871.829 249.937 871.829 249.967L941.86 439.513C942.279 440.63 941.711 441.866 940.594 442.285C940.344 442.385 940.085 442.424 939.836 442.424Z" fill="white" fill-opacity="0.25"/>
<path d="M869.803 252.879C869.194 252.879 868.586 252.619 868.167 252.131L691.748 47.9365C690.99 47.0589 691.06 45.7327 691.908 44.9449C692.755 44.1472 694.071 44.1671 694.909 44.9848L850.817 199.11C851.016 199.31 851.185 199.559 851.295 199.828L871.807 249.897C872.206 250.874 871.837 252.001 870.939 252.56C870.58 252.769 870.192 252.879 869.803 252.879ZM730.987 86.7371L862.783 239.277L847.456 201.873L730.987 86.7371Z" fill="white" fill-opacity="0.25"/>
<path d="M224.535 73.4148C223.578 73.4148 222.71 72.7767 222.451 71.8294C222.142 70.7125 222.76 69.5658 223.847 69.1968L431.298 0.111604C431.797 -0.0478953 432.315 -0.0380287 432.774 0.151491L471.803 15.3786C472.691 15.7276 473.249 16.615 473.169 17.5624C473.099 18.5097 472.411 19.3075 471.474 19.5069L224.994 73.3651C224.844 73.395 224.685 73.4148 224.535 73.4148ZM431.926 4.46932L263.784 60.4615L463.566 16.8045L431.926 4.46932Z" fill="white" fill-opacity="0.25"/>
<path d="M693.385 48.6844C693.295 48.6844 693.196 48.6744 693.106 48.6645L470.737 19.5366L431.199 4.17989C430.162 3.78104 429.604 2.65427 429.903 1.58719C430.192 0.520225 431.259 -0.147933 432.346 0.0315802L693.744 44.3865C694.911 44.586 695.699 45.673 695.529 46.8396C695.359 47.9166 694.442 48.6844 693.385 48.6844ZM452.469 7.83957L471.804 15.3783L581.124 29.668L452.469 7.83957Z" fill="white" fill-opacity="0.25"/>
<path d="M510.025 930C509.187 930 508.389 929.501 508.04 928.694C507.592 927.667 508.011 926.46 508.998 925.932L755.478 793.485C756.356 793.036 757.413 793.196 758.081 793.904C758.749 794.622 758.858 795.689 758.35 796.526L719.321 859.878C719.052 860.306 718.643 860.636 718.164 860.795L510.713 929.89C510.484 929.96 510.254 930 510.025 930ZM750.442 801.103L533.209 917.834L716.05 856.936L750.442 801.103Z" fill="white" fill-opacity="0.25"/>
<path d="M717.475 860.905C716.997 860.905 716.528 860.745 716.129 860.436C715.272 859.758 715.062 858.541 715.631 857.604L754.66 794.253C754.789 794.043 754.959 793.864 755.148 793.704L888.998 685.599C889.896 684.871 891.192 684.991 891.97 685.838C892.738 686.696 892.698 688.012 891.88 688.82L719.001 860.276C718.582 860.695 718.024 860.905 717.475 860.905ZM758.15 796.835L728.833 844.431L858.704 715.624L758.15 796.835Z" fill="white" fill-opacity="0.25"/>
<path d="M893.935 538.922C893.806 538.922 893.676 538.912 893.546 538.882C892.589 538.713 891.861 537.915 891.781 536.938L867.65 250.894C867.56 249.817 868.278 248.84 869.335 248.601C870.462 248.391 871.459 248.95 871.828 249.967L941.859 439.513C942.069 440.061 942.039 440.659 941.789 441.188L895.89 537.686C895.521 538.454 894.763 538.922 893.935 538.922ZM873.304 266.421L895.421 528.601L937.492 440.151L873.304 266.421Z" fill="white" fill-opacity="0.25"/>
<path d="M890.356 689.448C890.276 689.448 890.196 689.448 890.117 689.438C889 689.309 888.162 688.351 888.192 687.234L891.772 536.709C891.782 536.4 891.852 536.101 891.981 535.831L937.881 439.333C938.36 438.336 939.516 437.877 940.513 438.206C941.551 438.555 942.169 439.612 941.959 440.689L892.48 687.713C892.27 688.73 891.373 689.448 890.356 689.448ZM896.09 537.267L893.108 662.524L934.281 456.974L896.09 537.267Z" fill="white" fill-opacity="0.25"/>
<path d="M756.505 797.553C756.016 797.553 755.527 797.384 755.128 797.055C754.331 796.407 754.111 795.28 754.59 794.372L892.02 535.741C892.499 534.864 893.526 534.405 894.483 534.664C895.45 534.924 896.118 535.811 896.098 536.808L892.518 687.334C892.498 687.972 892.209 688.57 891.711 688.969L757.861 797.075C757.472 797.394 756.983 797.553 756.505 797.553ZM891.551 545.843L763.385 787.053L888.221 686.227L891.551 545.843Z" fill="white" fill-opacity="0.25"/>
<path d="M2.1661 491.895C1.91685 491.895 1.66754 491.855 1.4282 491.765C0.421085 491.396 -0.167296 490.349 0.0421316 489.302L49.5616 242.279C49.7112 241.541 50.2397 240.932 50.9476 240.673C51.6457 240.404 52.4533 240.554 53.0417 241.022L112.603 289.037C113.42 289.695 113.65 290.842 113.141 291.759L4.06073 490.768C3.67179 491.476 2.93397 491.895 2.1661 491.895ZM53.1015 246.627L7.06221 476.289L108.474 291.271L53.1015 246.627Z" fill="white" fill-opacity="0.25"/>
<path d="M111.247 292.886C110.758 292.886 110.279 292.716 109.891 292.407L50.3296 244.393C49.8509 244.004 49.5617 243.435 49.5219 242.817C49.4919 242.209 49.7213 241.6 50.16 241.172L223.009 69.7148C223.757 68.957 224.964 68.8772 225.811 69.5054C226.669 70.1336 226.948 71.3004 226.46 72.2477L113.171 291.719C112.872 292.287 112.334 292.706 111.695 292.836C111.546 292.866 111.396 292.886 111.247 292.886ZM54.9265 242.538L110.539 287.371L216.318 82.4391L54.9265 242.538Z" fill="white" fill-opacity="0.25"/>
<path d="M248.666 885.625C248.097 885.625 247.549 885.406 247.15 884.997L91.2026 730.881C90.4447 730.143 90.3451 728.977 90.9433 728.109C91.5516 727.241 92.6685 726.962 93.6357 727.381L288.622 818.145C289.181 818.404 289.599 818.893 289.779 819.491C289.958 820.08 289.869 820.718 289.55 821.247L250.51 884.598C250.161 885.157 249.583 885.525 248.925 885.605C248.835 885.615 248.755 885.625 248.666 885.625ZM103.099 736.565L248.247 880.011L284.584 821.047L103.099 736.565Z" fill="white" fill-opacity="0.25"/>
<path d="M510.025 930C509.905 930 509.786 929.99 509.666 929.97L248.308 885.595C247.6 885.475 246.991 885.007 246.692 884.348C246.403 883.7 246.443 882.942 246.822 882.324L285.861 818.973C286.44 818.025 287.636 817.666 288.653 818.165L510.972 925.891C511.94 926.36 512.418 927.467 512.089 928.494C511.79 929.401 510.952 930 510.025 930ZM252.187 881.865L495.416 923.159L288.524 822.912L252.187 881.865Z" fill="white" fill-opacity="0.25"/>
<path d="M869.804 252.879C869.485 252.879 869.165 252.809 868.856 252.659L646.537 144.963C645.47 144.445 645.022 143.158 645.53 142.091L691.43 45.5932C691.749 44.9351 692.367 44.4763 693.095 44.3766C693.823 44.3168 694.551 44.5561 695.02 45.1046L871.439 249.299C872.107 250.077 872.147 251.213 871.519 252.031C871.1 252.58 870.462 252.879 869.804 252.879ZM650.357 142.011L861.318 244.203L693.913 50.4395L650.357 142.011Z" fill="white" fill-opacity="0.25"/>
<path d="M647.483 145.182C647.035 145.182 646.596 145.043 646.227 144.784L469.758 19.1579C468.95 18.5796 468.641 17.5225 469 16.6051C469.359 15.6877 470.366 15.1791 471.293 15.2489L693.662 44.3768C694.35 44.4666 694.949 44.8754 695.288 45.4837C695.617 46.092 695.637 46.82 695.338 47.4482L649.438 143.946C649.159 144.524 648.65 144.953 648.032 145.113C647.852 145.163 647.663 145.182 647.483 145.182ZM479.341 20.6635L646.636 139.758L690.152 48.2758L479.341 20.6635Z" fill="white" fill-opacity="0.25"/>
<path d="M135.38 578.92C134.971 578.92 134.552 578.8 134.193 578.571L0.981257 491.546C0.0339805 490.928 -0.275168 489.682 0.273266 488.694L109.354 289.685C109.812 288.848 110.8 288.419 111.697 288.608C112.634 288.808 113.322 289.586 113.402 290.543L137.534 576.577C137.604 577.394 137.195 578.192 136.487 578.611C136.148 578.82 135.759 578.92 135.38 578.92ZM5.02977 489.013L132.847 572.518L109.693 298.052L5.02977 489.013Z" fill="white" fill-opacity="0.25"/>
<path d="M92.7186 731.51C91.8212 731.51 91.0134 730.951 90.6943 730.114L0.141373 490.499C-0.187728 489.622 0.0815337 488.634 0.809477 488.046C1.54743 487.448 2.55458 487.418 3.35226 487.916L136.564 574.941C137.352 575.46 137.711 576.427 137.462 577.334L94.8027 729.924C94.5534 730.832 93.7457 731.47 92.8183 731.51H92.7186ZM6.53323 495.166L92.4095 722.415L132.865 577.703L6.53323 495.166Z" fill="white" fill-opacity="0.25"/>
<path d="M287.705 822.274C287.396 822.274 287.087 822.204 286.788 822.074L91.8014 731.31C90.8441 730.861 90.3455 729.784 90.6347 728.767L133.294 576.177C133.523 575.35 134.221 574.742 135.069 574.612C135.906 574.552 136.764 574.891 137.213 575.609L289.54 818.963C290.049 819.771 289.959 820.828 289.331 821.546C288.902 822.014 288.314 822.274 287.705 822.274ZM95.3015 728.159L281.992 815.064L136.146 582.051L95.3015 728.159Z" fill="white" fill-opacity="0.25"/>
<path d="M510.025 930C509.566 930 509.098 929.85 508.719 929.561C508.041 929.052 507.732 928.195 507.911 927.367L535.323 804.334C535.543 803.377 536.37 802.679 537.347 802.639L756.416 793.225C757.263 793.135 758.32 793.843 758.59 794.821C758.859 795.788 758.42 796.815 757.533 797.294L511.052 929.74C510.723 929.91 510.374 930 510.025 930ZM539.192 806.897L513.166 923.697L747.162 797.952L539.192 806.897Z" fill="white" fill-opacity="0.25"/>
<path d="M510.025 930C509.706 930 509.377 929.93 509.078 929.78L286.759 822.054C285.881 821.625 285.393 820.658 285.582 819.691C285.772 818.724 286.59 818.016 287.577 817.946L537.308 802.639C537.996 802.639 538.654 802.888 539.083 803.397C539.522 803.915 539.701 804.613 539.551 805.271L512.139 928.305C511.99 928.953 511.561 929.491 510.963 929.78C510.673 929.93 510.344 930 510.025 930ZM296.083 821.765L508.51 924.695L534.705 807.136L296.083 821.765Z" fill="white" fill-opacity="0.25"/>
<path d="M357.727 160.459C356.919 160.459 356.171 160.011 355.802 159.283C355.413 158.525 355.503 157.607 356.042 156.939L469.33 16.0366C470.058 15.1391 471.354 14.9696 472.272 15.6278L648.741 141.254C649.489 141.792 649.818 142.739 649.558 143.627C649.309 144.504 648.521 145.133 647.594 145.183L357.837 160.459L357.727 160.459ZM471.424 20.3345L362.443 155.882L641.182 141.184L471.424 20.3345Z" fill="white" fill-opacity="0.25"/>
<path d="M111.245 292.886C110.687 292.886 110.138 292.677 109.729 292.268C109.051 291.6 108.892 290.573 109.321 289.725L222.609 70.2537C222.888 69.7152 223.387 69.3163 223.985 69.1568C224.583 68.9873 225.212 69.107 225.72 69.436L358.912 156.481C359.55 156.899 359.919 157.627 359.889 158.385C359.849 159.153 359.421 159.841 358.753 160.2L112.272 292.627C111.943 292.796 111.594 292.886 111.245 292.886ZM225.361 74.3721L116.371 285.517L353.498 158.116L225.361 74.3721Z" fill="white" fill-opacity="0.25"/>
<path d="M357.727 160.459C357.318 160.459 356.909 160.34 356.54 160.11L223.348 73.0657C222.62 72.587 222.251 71.7194 222.411 70.8619C222.56 70.0044 223.218 69.3263 224.076 69.1368L470.556 15.2786C471.454 15.0991 472.371 15.478 472.85 16.2558C473.338 17.0336 473.279 18.0309 472.7 18.7488L359.412 159.652C358.983 160.18 358.365 160.459 357.727 160.459ZM230.039 72.258L357.268 155.413L465.491 20.8128L230.039 72.258Z" fill="white" fill-opacity="0.25"/>
<path d="M893.935 538.922C893.247 538.922 892.589 538.593 892.17 538.015L769.449 366.05C768.87 365.242 768.92 364.135 769.578 363.377L868.168 249.299C868.737 248.651 869.634 248.392 870.472 248.661C871.299 248.93 871.888 249.668 871.958 250.535L896.089 536.579C896.169 537.546 895.601 538.454 894.683 538.793C894.434 538.883 894.184 538.922 893.935 538.922ZM773.966 364.923L891.113 529.09L868.079 256.02L773.966 364.923Z" fill="white" fill-opacity="0.25"/>
<path d="M771.214 366.957C771.145 366.957 771.065 366.957 770.995 366.947C770.297 366.878 769.669 366.469 769.33 365.85L645.601 144.076C645.132 143.248 645.262 142.221 645.91 141.533C646.558 140.855 647.565 140.655 648.433 141.074L870.752 248.771C871.35 249.06 871.789 249.618 871.919 250.276C872.058 250.935 871.879 251.623 871.44 252.131L772.85 366.21C772.441 366.688 771.843 366.957 771.214 366.957ZM652.721 147.955L771.593 361.044L866.325 251.433L652.721 147.955Z" fill="white" fill-opacity="0.25"/>
<path d="M756.505 797.553C756.455 797.553 756.405 797.553 756.355 797.543C755.507 797.494 754.769 796.935 754.48 796.137L684.459 606.572C684.25 606.023 684.279 605.415 684.529 604.887C684.788 604.358 685.247 603.959 685.795 603.77L893.246 534.704C894.104 534.435 895.021 534.684 895.59 535.362C896.158 536.04 896.258 536.988 895.849 537.776L758.419 796.406C758.04 797.114 757.302 797.553 756.505 797.553ZM689.285 607.17L756.864 790.114L889.487 540.518L689.285 607.17Z" fill="white" fill-opacity="0.25"/>
<path d="M537.437 806.967C536.64 806.967 535.902 806.528 535.523 805.81C535.134 805.072 535.204 804.175 535.702 803.507L684.749 604.528C685.228 603.899 685.996 603.58 686.793 603.68C687.581 603.8 688.239 604.328 688.508 605.076L758.53 794.642C758.779 795.29 758.689 796.008 758.31 796.586C757.921 797.165 757.293 797.524 756.595 797.553L537.527 806.967H537.437ZM685.836 610.301L541.905 802.45L753.444 793.355L685.836 610.301Z" fill="white" fill-opacity="0.25"/>
<path d="M686.484 607.988C685.916 607.988 685.358 607.758 684.939 607.34C684.36 606.751 684.171 605.884 684.44 605.106L769.17 364.075C769.439 363.318 770.107 362.769 770.915 362.649C771.683 362.58 772.51 362.879 772.979 363.537L895.701 535.502C896.099 536.061 896.209 536.779 895.99 537.427C895.78 538.085 895.272 538.593 894.624 538.813L687.172 607.878C686.943 607.948 686.714 607.988 686.484 607.988ZM771.872 369.44L689.984 602.374L890.475 535.632L771.872 369.44Z" fill="white" fill-opacity="0.25"/>
<path d="M135.379 578.92C135.179 578.92 134.97 578.89 134.77 578.83C133.913 578.581 133.295 577.823 133.225 576.935L109.093 290.902C109.023 290.094 109.412 289.316 110.1 288.887C110.788 288.449 111.656 288.439 112.364 288.867L279.37 388.945C279.908 389.264 280.277 389.793 280.387 390.391C280.507 391 280.357 391.628 279.978 392.116L137.094 578.072C136.675 578.621 136.037 578.92 135.379 578.92ZM113.76 294.751L137.064 571.012L275.072 391.408L113.76 294.751Z" fill="white" fill-opacity="0.25"/>
<path d="M278.263 392.964C277.874 392.964 277.495 392.864 277.146 392.655L110.14 292.577C109.472 292.178 109.064 291.45 109.083 290.672C109.103 289.895 109.542 289.187 110.22 288.818L356.701 156.391C357.498 155.982 358.446 156.082 359.124 156.65C359.802 157.219 360.061 158.156 359.772 158.993L280.307 391.498C280.098 392.116 279.619 392.605 279.011 392.834C278.762 392.924 278.513 392.964 278.263 392.964ZM115.625 290.822L277.077 387.569L353.899 162.813L115.625 290.822Z" fill="white" fill-opacity="0.25"/>
<path d="M537.437 806.967C536.769 806.967 536.131 806.657 535.722 806.119L395.051 622.417C394.563 621.779 394.463 620.921 394.802 620.193C395.141 619.465 395.849 618.987 396.657 618.937L686.374 603.66C686.993 603.62 688 604.069 688.389 604.806C688.787 605.544 688.718 606.452 688.219 607.12L539.172 806.099C538.763 806.637 538.115 806.967 537.437 806.967ZM400.984 623.045L537.417 801.223L681.977 608.227L400.984 623.045Z" fill="white" fill-opacity="0.25"/>
<path d="M287.705 822.274C286.967 822.274 286.279 821.895 285.881 821.267C285.452 820.598 285.432 819.761 285.811 819.073L394.871 620.064C395.22 619.416 395.868 618.997 396.606 618.947C397.324 618.757 398.042 619.206 398.481 619.785L539.152 803.487C539.64 804.125 539.74 804.972 539.401 805.7C539.072 806.428 538.364 806.917 537.566 806.967L287.835 822.274H287.705ZM397.065 625.05L291.485 817.707L533.248 802.888L397.065 625.05Z" fill="white" fill-opacity="0.25"/>
<path d="M287.705 822.274C286.957 822.274 286.269 821.895 285.87 821.257L133.543 577.903C133.094 577.185 133.104 576.257 133.582 575.549C134.051 574.851 134.909 574.482 135.736 574.622L397.124 618.967C397.812 619.086 398.411 619.525 398.71 620.153C399.019 620.792 398.999 621.53 398.66 622.138L289.6 821.147C289.231 821.825 288.533 822.254 287.765 822.274L287.705 822.274ZM139.765 579.698L287.585 815.832L393.405 622.726L139.765 579.698Z" fill="white" fill-opacity="0.25"/>
<path d="M396.766 623.265C396.646 623.265 396.527 623.255 396.407 623.235L135.019 578.89C134.271 578.76 133.643 578.252 133.364 577.544C133.085 576.836 133.204 576.038 133.663 575.44L276.547 389.484C276.996 388.896 277.744 388.527 278.452 388.646C279.19 388.716 279.848 389.155 280.187 389.813L398.691 620.114C399.059 620.842 399 621.719 398.511 622.377C398.102 622.936 397.444 623.265 396.766 623.265ZM139.287 575.22L392.867 618.249L277.903 394.819L139.287 575.22Z" fill="white" fill-opacity="0.25"/>
<path d="M396.768 623.265C395.96 623.255 395.212 622.806 394.843 622.088L276.339 391.787C276.01 391.159 276.02 390.401 276.359 389.773C276.698 389.145 277.317 388.726 278.025 388.646L533.958 360.316C534.746 360.256 535.544 360.595 535.992 361.253C536.441 361.921 536.481 362.779 536.112 363.487L398.682 622.118C398.303 622.826 397.565 623.265 396.768 623.265ZM281.624 392.605L396.797 616.434L530.368 365.072L281.624 392.605Z" fill="white" fill-opacity="0.25"/>
<path d="M396.766 623.265C396.028 623.265 395.34 622.886 394.941 622.268C394.522 621.61 394.492 620.772 394.851 620.084L532.281 361.453C532.65 360.775 533.348 360.336 534.116 360.306C534.963 360.406 535.621 360.665 536.03 361.323L688.318 604.677C688.727 605.325 688.757 606.143 688.398 606.821C688.049 607.499 687.361 607.948 686.593 607.988L396.875 623.265L396.766 623.265ZM534.345 366.788L400.465 618.738L682.704 603.86L534.345 366.788Z" fill="white" fill-opacity="0.25"/>
<path d="M686.483 607.988C685.746 607.988 685.048 607.609 684.649 606.971L532.361 363.617C531.942 362.949 531.922 362.101 532.311 361.413C532.7 360.715 533.548 360.536 534.216 360.306L771.233 362.63C771.931 362.64 772.579 362.979 772.988 363.547C773.387 364.125 773.487 364.853 773.257 365.511L688.528 606.542C688.249 607.33 687.55 607.878 686.723 607.978C686.643 607.978 686.563 607.988 686.483 607.988ZM538.125 364.674L685.935 600.868L768.172 366.927L538.125 364.674Z" fill="white" fill-opacity="0.25"/>
<path d="M771.213 366.957H771.193L534.176 364.634C533.428 364.624 532.73 364.225 532.341 363.587C531.952 362.938 531.933 362.141 532.272 361.473L645.56 142.021C645.929 141.313 646.657 140.864 647.445 140.854H647.485C648.272 140.854 648.99 141.283 649.369 141.961L773.098 363.736C773.477 364.414 773.467 365.232 773.078 365.9C772.679 366.558 771.981 366.957 771.213 366.957ZM537.726 360.346L767.514 362.59L647.554 147.595L537.726 360.346Z" fill="white" fill-opacity="0.25"/>
<path d="M534.196 364.634C533.568 364.634 532.969 364.364 532.56 363.886L356.091 159.711C355.553 159.083 355.413 158.206 355.732 157.448C356.061 156.69 356.789 156.181 357.617 156.131L647.374 140.854C647.963 140.904 648.88 141.193 649.299 141.842C649.718 142.5 649.758 143.317 649.409 144.016L536.12 363.467C535.791 364.105 535.163 364.534 534.455 364.614C534.365 364.624 534.275 364.634 534.196 364.634ZM362.254 160.22L533.737 358.631L643.834 145.382L362.254 160.22Z" fill="white" fill-opacity="0.25"/>
<path d="M278.263 392.964C277.615 392.964 276.986 392.665 276.578 392.156C276.109 391.578 275.979 390.8 276.219 390.102L355.683 157.597C355.932 156.859 356.551 156.321 357.318 156.171C358.036 156.012 358.854 156.291 359.363 156.879L535.832 361.054C536.36 361.662 536.5 362.51 536.211 363.258C535.922 364.006 535.234 364.534 534.436 364.624L278.502 392.954C278.422 392.964 278.343 392.964 278.263 392.964ZM358.555 162.563L281.414 388.277L529.869 360.775L358.555 162.563Z" fill="white" fill-opacity="0.25"/>
</svg>
